<?xml version="1.0" standalone="no"?>
<!DOCTYPE svg PUBLIC "-//W3C//DTD SVG 20010904//EN"
 "http://www.w3.org/TR/2001/REC-SVG-20010904/DTD/svg10.dtd">
<svg version="1.0" xmlns="http://www.w3.org/2000/svg"
 width="260.000000pt" height="260.000000pt" viewBox="0 0 260.000000 260.000000"
 preserveAspectRatio="xMidYMid meet">
<metadata>
Created by potrace 1.14, written by Peter Selinger 2001-2017
</metadata>
<g transform="translate(0.000000,260.000000) scale(0.100000,-0.100000)"
fill="#000000" stroke="none">
<path d="M1180 2590 c-236 -24 -450 -104 -638 -237 -85 -61 -223 -198 -290
-288 -106 -143 -191 -343 -228 -532 -26 -130 -23 -357 5 -490 54 -259 170
-474 355 -658 256 -255 560 -379 926 -378 352 1 656 128 905 378 191 190 309
414 361 682 23 119 23 347 0 466 -102 526 -508 939 -1016 1035 -126 24 -278
33 -380 22z m-445 -1054 c89 -41 155 -142 155 -236 0 -64 -31 -132 -83 -184
-104 -103 -250 -107 -358 -9 -63 57 -84 105 -84 193 0 57 5 84 22 115 68 127
221 181 348 121z m680 -4 c47 -24 95 -73 121 -122 13 -25 19 -56 19 -110 0
-83 -15 -121 -69 -178 -53 -57 -101 -77 -186 -77 -85 0 -133 20 -186 77 -54
57 -69 95 -69 178 0 83 15 121 69 178 31 34 70 58 116 73 41 14 142 3 185 -19z
m680 4 c94 -43 148 -128 148 -236 0 -81 -28 -146 -87 -196 -56 -49 -100 -66
-172 -66 -257 -2 -364 337 -150 478 52 35 78 42 151 43 43 1 74 -6 110 -23z"/>
</g>
</svg>
