<?xml version="1.0" encoding="utf-8"?>
<!-- Generator: Adobe Illustrator 28.0.0, SVG Export Plug-In . SVG Version: 6.00 Build 0)  -->
<svg version="1.1" id="Calque_1" xmlns="http://www.w3.org/2000/svg" xmlns:xlink="http://www.w3.org/1999/xlink" x="0px" y="0px"
	 viewBox="0 0 280.12 86.24" style="enable-background:new 0 0 280.12 86.24;" xml:space="preserve">
<style type="text/css">
	.st0{fill:none;stroke:#FFFFFF;stroke-width:2;stroke-miterlimit:10;}
</style>
<path class="st0" d="M17.18,35.31c40.46,4.36,80.84,0.73,120.33-8.88c9.58-2.33,19.22-4.89,27.94-9.25
	c2.86-1.43,5.71-3.15,7.32-5.67c4.3-6.73-3.4-10.11-9.79-10.4c-5.87-0.27-11.85-0.06-17.56,1.35c-11.8,2.93-21.38,10.75-28.86,19.34
	c-7.49,8.6-13.38,18.18-20.96,26.72C74.28,72.57,41.13,85.81,6.93,85.23c-1.94-0.03-6.93-0.41-5.75-3.25
	c0.48-1.15,1.79-1.86,3.02-2.44c6.58-3.07,13.71-5.07,20.86-6.84c19.53-4.85,39.45-8.21,59.34-11.54
	c64.74-10.82,129.96-21.3,195.59-21.66c-1.72,0.23-5.87,1.49-7.59,1.72"/>
<path class="st0" d="M101.46,52.16c9.68-1.31,19.11-4.45,27.65-9.2c-10.34,1.65-20.24,5.93-28.52,12.34
	c4.46,2.14,9.71,1.46,14.59,0.66c18.13-2.99,36.04-7.18,53.91-11.5c-5.23,0.61-10.31,2.4-14.78,5.19"/>
<path class="st0" d="M149.02,42.12c-2.51-0.36-3.62,3.82-1.59,5.35c2.02,1.53,5.11,0.51,6.73-1.45c0.69-0.83,1.21-1.88,1.14-2.95
	c-0.2-3.07-4.79-3.77-7.31-2c26.29-4.45,52.59-8.9,78.88-13.35"/>
</svg>
