<svg width="832" height="76" viewBox="0 0 832 76" fill="none" xmlns="http://www.w3.org/2000/svg">
<path d="M21.278 74L0.979996 2.6H23.012L31.376 34.832C31.92 36.94 32.362 38.98 32.702 40.952C33.11 42.856 33.416 44.624 33.62 46.256C33.824 47.888 33.96 49.384 34.028 50.744C34.164 52.104 34.232 53.26 34.232 54.212H32.6C32.6 52.512 32.634 50.71 32.702 48.806C32.838 46.834 33.11 44.726 33.518 42.482C33.926 40.17 34.606 37.62 35.558 34.832L44.432 9.638H61.262L70.136 34.832C71.088 37.552 71.836 40.068 72.38 42.38C72.924 44.624 73.298 46.732 73.502 48.704C73.774 50.608 73.91 52.444 73.91 54.212H72.38C72.38 53.396 72.38 52.478 72.38 51.458C72.38 50.438 72.38 49.316 72.38 48.092C72.448 46.868 72.55 45.576 72.686 44.216C72.822 42.788 73.026 41.292 73.298 39.728C73.57 38.164 73.91 36.532 74.318 34.832L82.682 2.6H104L83.498 74H66.158L50.654 35.546H53.408L39.638 74H21.278Z" fill="white"/>
<path d="M106.064 74V2.6H159.41V20.45H127.178V56.15H161.246V74H106.064ZM116.57 46.256V29.528H155.636V46.256H116.57Z" fill="white"/>
<path d="M169.097 74V2.6H201.941C207.109 2.6 211.461 3.314 214.997 4.742C218.601 6.17 221.321 8.176 223.157 10.76C225.061 13.344 226.013 16.37 226.013 19.838C226.013 24.122 225.027 27.658 223.055 30.446C221.151 33.234 218.329 35.104 214.589 36.056L214.283 34.118C217.411 34.866 220.131 36.09 222.443 37.79C224.755 39.422 226.557 41.428 227.849 43.808C229.141 46.188 229.787 48.908 229.787 51.968C229.787 55.708 229.107 58.972 227.747 61.76C226.387 64.48 224.449 66.758 221.933 68.594C219.485 70.43 216.629 71.79 213.365 72.674C210.169 73.558 206.701 74 202.961 74H169.097ZM189.497 56.66H202.349C203.641 56.66 204.729 56.456 205.613 56.048C206.497 55.572 207.177 54.892 207.653 54.008C208.129 53.056 208.367 51.934 208.367 50.642C208.367 49.486 208.095 48.534 207.551 47.786C207.075 46.97 206.361 46.358 205.409 45.95C204.457 45.474 203.267 45.236 201.839 45.236H189.497V56.66ZM189.497 30.548H198.167C199.731 30.548 200.989 30.344 201.941 29.936C202.961 29.528 203.675 28.95 204.083 28.202C204.559 27.386 204.797 26.4 204.797 25.244C204.797 23.68 204.253 22.422 203.165 21.47C202.145 20.45 200.411 19.94 197.963 19.94H189.497V30.548Z" fill="white"/>
<path d="M236.911 74V2.6H268.327C273.699 2.6 278.629 3.484 283.117 5.252C287.605 7.02 291.515 9.502 294.847 12.698C298.179 15.826 300.729 19.566 302.497 23.918C304.333 28.27 305.251 33.064 305.251 38.3C305.251 43.468 304.333 48.262 302.497 52.682C300.729 57.034 298.179 60.808 294.847 64.004C291.515 67.132 287.605 69.58 283.117 71.348C278.629 73.116 273.699 74 268.327 74H236.911ZM258.943 60.434L255.169 55.232H267.817C270.061 55.232 272.101 54.824 273.937 54.008C275.773 53.124 277.371 51.934 278.731 50.438C280.091 48.942 281.145 47.174 281.893 45.134C282.641 43.026 283.015 40.748 283.015 38.3C283.015 35.852 282.641 33.608 281.893 31.568C281.145 29.46 280.091 27.658 278.731 26.162C277.371 24.666 275.773 23.51 273.937 22.694C272.101 21.81 270.061 21.368 267.817 21.368H254.863L258.943 16.37V60.434Z" fill="white"/>
<path d="M312.395 74V2.6H365.741V20.45H333.509V56.15H367.577V74H312.395ZM322.901 46.256V29.528H361.967V46.256H322.901Z" fill="white"/>
<path d="M394.706 74L366.248 2.6H388.28L399.704 33.812C400.52 35.92 401.166 37.722 401.642 39.218C402.186 40.714 402.662 42.142 403.07 43.502C403.478 44.794 403.852 46.188 404.192 47.684C404.6 49.18 405.042 51.016 405.518 53.192H401.948C402.628 50.336 403.206 47.99 403.682 46.154C404.226 44.318 404.804 42.516 405.416 40.748C406.096 38.912 406.946 36.6 407.966 33.812L419.39 2.6H440.708L412.046 74H394.706Z" fill="white"/>
<path d="M442.744 74V2.6H496.09V20.45H463.858V56.15H497.926V74H442.744ZM453.25 46.256V29.528H492.316V46.256H453.25Z" fill="white"/>
<path d="M505.776 74V2.6H527.808V55.232H558.408V74H505.776Z" fill="white"/>
<path d="M596.014 75.02C590.37 75.02 585.202 74.102 580.51 72.266C575.818 70.43 571.738 67.846 568.27 64.514C564.802 61.182 562.116 57.238 560.212 52.682C558.376 48.126 557.458 43.162 557.458 37.79C557.458 32.35 558.376 27.386 560.212 22.898C562.116 18.342 564.802 14.398 568.27 11.066C571.738 7.734 575.818 5.15 580.51 3.314C585.202 1.478 590.336 0.559998 595.912 0.559998C601.556 0.559998 606.69 1.478 611.314 3.314C616.006 5.15 620.086 7.734 623.554 11.066C627.022 14.398 629.674 18.342 631.51 22.898C633.414 27.386 634.366 32.316 634.366 37.688C634.366 43.128 633.414 48.126 631.51 52.682C629.674 57.238 627.022 61.182 623.554 64.514C620.086 67.846 616.006 70.43 611.314 72.266C606.69 74.102 601.59 75.02 596.014 75.02ZM595.912 54.62C598.224 54.62 600.332 54.212 602.236 53.396C604.208 52.58 605.908 51.424 607.336 49.928C608.832 48.364 609.954 46.562 610.702 44.522C611.518 42.482 611.926 40.238 611.926 37.79C611.926 35.342 611.518 33.098 610.702 31.058C609.954 29.018 608.832 27.25 607.336 25.754C605.908 24.19 604.208 23 602.236 22.184C600.332 21.368 598.224 20.96 595.912 20.96C593.6 20.96 591.458 21.368 589.486 22.184C587.582 23 585.882 24.19 584.386 25.754C582.958 27.25 581.836 29.018 581.02 31.058C580.272 33.098 579.898 35.342 579.898 37.79C579.898 40.238 580.272 42.482 581.02 44.522C581.836 46.562 582.958 48.364 584.386 49.928C585.882 51.424 587.582 52.58 589.486 53.396C591.458 54.212 593.6 54.62 595.912 54.62Z" fill="white"/>
<path d="M641.504 74V2.6H673.634C678.53 2.6 682.882 3.654 686.69 5.762C690.498 7.87 693.49 10.76 695.666 14.432C697.842 18.104 698.93 22.32 698.93 27.08C698.93 32.044 697.842 36.464 695.666 40.34C693.49 44.216 690.498 47.276 686.69 49.52C682.882 51.696 678.53 52.784 673.634 52.784H663.536V74H641.504ZM663.128 34.016H669.554C670.846 34.016 672.002 33.778 673.022 33.302C674.042 32.758 674.824 32.01 675.368 31.058C675.98 30.106 676.286 28.916 676.286 27.488C676.286 26.06 675.98 24.904 675.368 24.02C674.824 23.136 674.042 22.49 673.022 22.082C672.002 21.606 670.846 21.368 669.554 21.368H663.128V34.016Z" fill="white"/>
<path d="M706.031 74V2.6H759.377V20.45H727.145V56.15H761.213V74H706.031ZM716.537 46.256V29.528H755.603V46.256H716.537Z" fill="white"/>
<path d="M769.064 74V2.6H802.52C807.484 2.6 811.904 3.586 815.78 5.558C819.656 7.53 822.682 10.216 824.858 13.616C827.034 17.016 828.122 20.926 828.122 25.346C828.122 30.31 827.034 34.662 824.858 38.402C822.682 42.142 819.656 45.066 815.78 47.174C811.904 49.214 807.484 50.234 802.52 50.234H789.668V74H769.064ZM806.498 74L788.342 41.768L810.884 39.218L831.08 74H806.498ZM789.668 34.934H799.052C800.752 34.934 802.146 34.628 803.234 34.016C804.39 33.336 805.24 32.418 805.784 31.262C806.396 30.106 806.702 28.712 806.702 27.08C806.702 25.584 806.396 24.326 805.784 23.306C805.24 22.218 804.356 21.402 803.132 20.858C801.976 20.246 800.48 19.94 798.644 19.94H789.668V34.934Z" fill="white"/>
</svg>
