<?xml version="1.0" encoding="utf-8"?>
<!-- Generator: Adobe Illustrator 28.0.0, SVG Export Plug-In . SVG Version: 6.00 Build 0)  -->
<svg version="1.1" id="Calque_1" xmlns="http://www.w3.org/2000/svg" xmlns:xlink="http://www.w3.org/1999/xlink" x="0px" y="0px"
	 viewBox="0 0 81.7 61.6" style="enable-background:new 0 0 81.7 61.6;" xml:space="preserve">
<style type="text/css">
	.st0{fill:#FFFFFF;}
</style>
<path class="st0" d="M23.8,29.8L23.8,29.8l-1.1,4.7c-0.1,0.3-0.3,0.5-0.6,0.5h-1.3c-0.1,0-0.2,0.1-0.2,0.2c-1.2,4.1-2.8,6.9-5,8.5
	c-1.8,1.4-4.1,2.1-7.1,2.1c-2.7,0-4.5-0.9-6.1-2.6c-2-2.3-2.9-6-2.4-10.4c0.9-8.4,5.3-16.8,13.6-16.8c2.5,0,4.5,0.8,5.9,2.3
	c1.5,1.7,2.2,4.2,2.2,7.4c0,0.3-0.3,0.5-0.5,0.5h-6.1c-0.2,0-0.4-0.2-0.4-0.4c-0.1-2.3-0.7-3.4-2.1-3.4c-2.3,0-3.7,3.2-4.5,5
	c-1,2.5-1.6,5.2-1.4,7.8c0,1.2,0.2,3,1.4,3.7c1,0.6,2.5,0.2,3.4-0.5c0.9-0.7,1.6-1.9,1.9-3.1c0-0.2,0-0.3,0-0.3
	c0-0.1-0.2-0.1-0.3-0.1h-1.6c-0.2,0-0.3-0.1-0.4-0.2c-0.1-0.1-0.1-0.2-0.1-0.4l1.1-4.7c0.1-0.2,0.3-0.4,0.5-0.5v0h10.3
	c0,0,0,0,0.1,0C23.6,29.3,23.8,29.5,23.8,29.8L23.8,29.8L23.8,29.8z"/>
<path class="st0" d="M41.6,24.4c0,0.3-0.3,0.5-0.5,0.5h-5.6c-0.4,0-0.7-0.3-0.7-0.7c0-1.6-0.6-2.4-1.7-2.4s-1.9,0.7-1.9,2
	c0,1.4,0.8,2.7,3,4.8c3,2.8,4.1,5.2,4.1,8.5c-0.1,5.3-3.7,8.6-9.1,8.6c-2.8,0-4.9-0.7-6.3-2.2c-1.4-1.5-2.1-3.7-2-6.5
	c0-0.3,0.3-0.5,0.5-0.5h5.8c0.2,0,0.3,0.1,0.4,0.2c0.1,0.1,0.1,0.2,0.1,0.4c-0.1,1,0.1,1.8,0.5,2.2c0.3,0.3,0.6,0.4,1.1,0.4
	c1.1,0,1.7-0.8,1.7-2.1c0-1.1-0.3-2.2-2.3-4.2c-2.6-2.5-4.8-5.1-4.8-9.1c0-2.4,1-4.5,2.6-6.1c1.8-1.6,4.1-2.5,6.9-2.5
	c2.8,0,4.9,0.8,6.3,2.4C41,19.6,41.7,21.7,41.6,24.4L41.6,24.4z"/>
<path class="st0" d="M59.1,44.8l0-27.9c0-0.3-0.2-0.5-0.5-0.5c0,0,0,0,0,0h-8.7c-0.3,0-0.4,0.3-0.5,0.4L36.7,44.6v0l0,0
	c-0.1,0.3,0.1,0.7,0.5,0.7h6.1c0.3,0,0.5-0.1,0.7-0.3l1.2-2.9c0.1-0.4,0.2-0.4,0.6-0.4h5.8c0.4,0,0.4,0,0.4,0.4l-0.1,2.7
	c0,0.3,0.2,0.5,0.5,0.5c0,0,0,0,0,0h6.2c0.2,0,0.3-0.1,0.4-0.2C59.1,45.1,59.1,44.9,59.1,44.8z M48.3,35.5c0,0-0.1,0-0.1,0
	c-0.1,0-0.1-0.1-0.1-0.2c0,0,0,0,0,0c0,0,0-0.1,0.1-0.2l4.4-10.8c0-0.1,0.1-0.2,0.1-0.3c0.1-0.1,0.2-0.2,0.2,0
	c0,0.1-0.5,11.1-0.5,11.1c0,0.4-0.1,0.4-0.5,0.5L48.3,35.5L48.3,35.5L48.3,35.5L48.3,35.5z"/>
<path class="st0" d="M71.5,16.3h-4.6c-0.2,0-0.5,0.1-0.6,0.4l-6.5,28c0,0.1,0,0.3,0.1,0.4c0.1,0.1,0.3,0.2,0.4,0.2h5.8
	c0.3,0,0.5-0.2,0.6-0.4l0.7-3.2c0.1-0.2,0-0.4-0.3-0.6c-0.1-0.1-0.2-0.1-0.3-0.2l-1-0.5l-1-0.5l-0.4-0.2c-0.1,0-0.1-0.1-0.1-0.2
	c0-0.1,0.1-0.2,0.2-0.2l3.2,0c0.9,0,1.9-0.1,2.8-0.2c6.6-1.2,10.9-6.5,11.1-13.7C81.8,19.4,78.4,16.3,71.5,16.3
	C71.5,16.3,71.5,16.3,71.5,16.3z M70,33h-0.1c-0.3,0-0.3,0-0.3,0c0,0,1.8-8.1,1.8-8.1c0-0.2,0-0.4-0.1-0.4c-0.2-0.1-2.9-1.5-2.9-1.5
	c-0.1,0-0.1-0.1-0.1-0.2c0-0.1,0.1-0.2,0.2-0.2h4.2c1.3,0,2.1,1.2,2,3.2C74.7,29.3,73,32.9,70,33L70,33z"/>
</svg>
