<svg version="1.2" xmlns="http://www.w3.org/2000/svg" viewBox="0 0 223 57" width="223" height="57"><style>.a{fill:#fff}</style><path fill-rule="evenodd" class="a" d="m55.8 28.4c0 15.4-12.5 27.8-27.8 27.8-15.4 0-27.8-12.4-27.8-27.8 0-15.3 12.4-27.8 27.8-27.8 15.3 0 27.8 12.5 27.8 27.8zm-10.7-14.3c0-2-2.2-3.3-5-3.2-2.8 0.1-5.3 1.7-7.1 3.8-2 2.4-3.4 5.2-4.3 8-1.8-1.4-3.1-3.2-5.9-4.1-2.2-0.6-4.5-0.3-6.5 1.2-1 0.8-1.7 1.9-2 2.9-0.9 2.8 0.9 5.2 1.6 6.1l1.7 1.8c0.4 0.3 1.2 1.3 0.8 2.6-0.4 1.5-2.2 2.4-4 1.9-0.8-0.3-1.9-0.9-1.7-1.7 0.1-0.4 0.4-0.6 0.5-0.9q0.2-0.4 0.2-0.6c0.3-1.1-0.1-2.5-1.3-2.8-1-0.3-2.1-0.1-2.6 1.3-0.4 1.6 0.3 4.4 4.3 5.7 4.8 1.4 8.8-1.1 9.3-4.5 0.4-2.1-0.6-3.7-2.3-5.7l-1.4-1.5c-0.9-0.9-1.2-2.4-0.3-3.5 0.8-0.9 1.8-1.3 3.6-0.8 2.5 0.6 3.7 2.4 5.6 3.8-0.8 2.6-1.3 5.2-1.8 7.5l-0.3 1.7c-1.3 7.1-2.4 11-5.1 13.3-0.5 0.4-1.3 0.9-2.4 1-0.7 0-0.9-0.4-0.9-0.6 0-0.4 0.4-0.6 0.6-0.8 0.4-0.2 0.9-0.5 0.9-1.6 0-1.2-1.1-2.3-2.5-2.2-1.1 0-2.8 1-2.8 2.9 0.1 2 1.9 3.5 4.7 3.4 1.5-0.1 4.8-0.7 8-4.5 3.8-4.4 4.8-9.5 5.6-13.2l0.9-4.9q0.8 0.1 1.6 0.1c4.7 0.1 7.1-2.4 7.1-4.1 0-1.1-0.7-2.2-1.7-2.1-0.7 0-1.6 0.5-1.9 1.5-0.2 1 1.5 1.9 0.2 2.7-1 0.6-2.7 1.1-5.1 0.7l0.5-2.4c0.9-4.6 2-10.2 6.1-10.3 0.3-0.1 1.5 0 1.5 0.7 0 0.3-0.1 0.3-0.4 0.9-0.3 0.4-0.4 0.8-0.4 1.2 0.1 1.2 1 2 2.3 1.9 1.7 0 2.2-1.7 2.1-2.6z"/><path fill-rule="evenodd" class="a" d="m168.6 20.6c6.4 0 10.7 4.6 10.7 11 0 6.1-4.3 11.1-10.7 11.1-6.3 0-10.7-5-10.7-11.1 0-6.4 4.3-11 10.7-11zm0 18.9c4.6 0 6.6-4.1 6.6-7.9 0-4-2.4-7.9-6.6-7.9-4.1 0-6.6 3.9-6.6 7.9 0 3.8 2.1 7.9 6.6 7.9z"/><path class="a" d="m157.4 22.6v-1.5h-5.6v-2c0-2.9 0.4-5 3.7-5q0.1 0 0.2 0 0 0 0 0c1 0.1 1.7-0.7 1.8-1.6l0.1-1.3c-0.8-0.1-1.6-0.2-2.6-0.2-5.8 0-7.1 3.3-7.1 8.4v1.7h-5v1.6c0.2 0.9 0.9 1.5 1.8 1.5q0 0 0 0h3.2v18h2.1q0 0 0 0c0.9 0 1.7-0.7 1.8-1.6v-16.4h3.9c0.9 0 1.6-0.7 1.7-1.6z"/><path class="a" d="m105.6 21.1q0 0 0 0c-0.8 0-1.6 0.6-1.9 1.3l-5.4 16.1h-0.1l-5.2-16.1c-0.3-0.7-1.1-1.3-2-1.3q0 0 0 0h-2.7l7.2 19.7c0.2 0.7 0.7 1.7 0.7 2.2 0 0.4-1.2 5.2-4.6 5.2q-0.2 0-0.3 0c-0.9-0.1-1.5 0.5-1.7 1.5l-0.1 1.3c0.7 0.2 1.4 0.3 2.7 0.3 5.1 0 6.6-4.6 8.1-8.7l7.7-21.5c0 0-2.4 0-2.4 0z"/><path class="a" d="m80.9 25.4c-3.2-1.7-6.7-2.8-6.7-6.1 0-3.5 3.2-4.4 5.7-4.4q0 0 0 0c1.1 0 1.9 0.1 2.8 0.3q0 0 0 0c0.9 0 1.6-0.7 1.8-1.5v-1.3c-1.6-0.4-3.3-0.6-4.8-0.6-5.4 0-9.4 2.7-9.4 7.9 0 4.5 3.1 6.3 6.3 7.9 3.3 1.5 6.8 2.8 6.8 6.6 0 3.9-3.8 5.3-6.4 5.3-1.5 0-3.1-0.4-4.5-0.8-0.9-0.2-1.6 0.6-1.7 1.6l-0.1 1.2c1.9 0.6 3.8 1.1 5.8 1.1q0 0 0 0 0 0 0 0c6.1 0 10.8-2.4 10.8-8.7 0-4.8-3.1-6.9-6.4-8.5z"/><path class="a" d="m139.7 42.2q0 0 0 0c0.8 0 1.5-0.6 1.7-1.4v-12.1c0-4.6-1.9-8.1-7.3-8.1-1.9 0-5.1 1.1-6.5 4.1-1.2-2.9-3.6-4.1-6-4.1-3.1 0-5.2 1.1-6.7 3.6h-0.1v-1.4c0-0.9-0.8-1.7-1.8-1.7q0 0 0 0h-1.8v21.1h2.1q0 0 0 0c0.9 0 1.7-0.8 1.7-1.8q0 0 0-0.1v-8.8c0-3.9 1.6-7.8 5.6-7.8 3.1 0 3.7 3.3 3.7 5.9v12.6h2.2q0 0 0 0c0.9 0 1.6-0.7 1.7-1.6v-9.1c0-3.9 1.6-7.8 5.6-7.8 3.1 0 3.7 3.3 3.7 5.9v12.6c0 0 2.2 0 2.2 0z"/><path class="a" d="m199.7 42.2q0 0 0 0c1 0 1.7-0.8 1.8-1.7v-10.9c0-5.6-2.5-9-7.9-9-3 0-5.8 1.4-6.9 3.8h-0.1v-1.5q0 0 0 0c0-1-0.8-1.8-1.8-1.8q0 0 0 0h-2v21.1h2.2q0 0 0 0c0.9 0 1.6-0.8 1.7-1.7v-8.1c0-5.1 2-8.7 6.4-8.7 3.4 0.2 4.5 2.6 4.5 7.6v10.9z"/><path class="a" d="m220.6 21.1q0 0 0 0c-0.8 0-1.6 0.6-2 1.3l-5.3 16.1h-0.1l-5.2-16.1c-0.4-0.7-1.2-1.3-2-1.3q0 0 0 0h-2.7l7.1 19.7c0.3 0.7 0.8 1.7 0.8 2.2 0 0.4-1.2 5.2-4.7 5.2q-0.1 0-0.2 0c-0.9-0.1-1.6 0.5-1.7 1.5l-0.1 1.3c0.7 0.2 1.4 0.3 2.6 0.3 5.2 0 6.7-4.6 8.1-8.7l7.8-21.5c0 0-2.4 0-2.4 0z"/></svg>