<?xml version="1.0" encoding="utf-8"?>
<!-- Generator: Adobe Illustrator 28.0.0, SVG Export Plug-In . SVG Version: 6.00 Build 0)  -->
<svg version="1.1" id="Calque_1" xmlns="http://www.w3.org/2000/svg" xmlns:xlink="http://www.w3.org/1999/xlink" x="0px" y="0px"
	 viewBox="0 0 223 84.4" style="enable-background:new 0 0 223 84.4;" xml:space="preserve">
<style type="text/css">
	.st0{fill-rule:evenodd;clip-rule:evenodd;fill:#FFFFFF;}
	.st1{fill:#FFFFFF;}
</style>
<path class="st0" d="M55.8,42.1c0,15.4-12.5,27.8-27.8,27.8c-15.4,0-27.8-12.4-27.8-27.8c0-15.3,12.4-27.8,27.8-27.8
	C43.3,14.3,55.8,26.8,55.8,42.1z M45.1,27.8c0-2-2.2-3.3-5-3.2s-5.3,1.7-7.1,3.8c-2,2.4-3.4,5.2-4.3,8c-1.8-1.4-3.1-3.2-5.9-4.1
	c-2.2-0.6-4.5-0.3-6.5,1.2c-1,0.8-1.7,1.9-2,2.9c-0.9,2.8,0.9,5.2,1.6,6.1l1.7,1.8c0.4,0.3,1.2,1.3,0.8,2.6c-0.4,1.5-2.2,2.4-4,1.9
	c-0.8-0.3-1.9-0.9-1.7-1.7c0.1-0.4,0.4-0.6,0.5-0.9c0.1-0.3,0.2-0.5,0.2-0.6c0.3-1.1-0.1-2.5-1.3-2.8c-1-0.3-2.1-0.1-2.6,1.3
	c-0.4,1.6,0.3,4.4,4.3,5.7c4.8,1.4,8.8-1.1,9.3-4.5c0.4-2.1-0.6-3.7-2.3-5.7l-1.4-1.5c-0.9-0.9-1.2-2.4-0.3-3.5
	c0.8-0.9,1.8-1.3,3.6-0.8c2.5,0.6,3.7,2.4,5.6,3.8c-0.8,2.6-1.3,5.2-1.8,7.5l-0.3,1.7c-1.3,7.1-2.4,11-5.1,13.3
	c-0.5,0.4-1.3,0.9-2.4,1c-0.7,0-0.9-0.4-0.9-0.6c0-0.4,0.4-0.6,0.6-0.8c0.4-0.2,0.9-0.5,0.9-1.6c0-1.2-1.1-2.3-2.5-2.2
	c-1.1,0-2.8,1-2.8,2.9c0.1,2,1.9,3.5,4.7,3.4c1.5-0.1,4.8-0.7,8-4.5c3.8-4.4,4.8-9.5,5.6-13.2l0.9-4.9c0.5,0.1,1.1,0.1,1.6,0.1
	c4.7,0.1,7.1-2.4,7.1-4.1c0-1.1-0.7-2.2-1.7-2.1c-0.7,0-1.6,0.5-1.9,1.5c-0.2,1,1.5,1.9,0.2,2.7c-1,0.6-2.7,1.1-5.1,0.7l0.5-2.4
	c0.9-4.6,2-10.2,6.1-10.3c0.3-0.1,1.5,0,1.5,0.7c0,0.3-0.1,0.3-0.4,0.9c-0.3,0.4-0.4,0.8-0.4,1.2c0.1,1.2,1,2,2.3,1.9
	C44.7,30.4,45.2,28.7,45.1,27.8z"/>
<path class="st0" d="M168.6,34.3c6.4,0,10.7,4.6,10.7,11c0,6.1-4.3,11.1-10.7,11.1c-6.3,0-10.7-5-10.7-11.1
	C157.9,38.9,162.2,34.3,168.6,34.3z M168.6,53.2c4.6,0,6.6-4.1,6.6-7.9c0-4-2.4-7.9-6.6-7.9c-4.1,0-6.6,3.9-6.6,7.9
	C162,49.1,164.1,53.2,168.6,53.2z"/>
<path class="st1" d="M157.4,36.3v-1.5h-5.6v-2c0-2.9,0.4-5,3.7-5c0.1,0,0.1,0,0.2,0c0,0,0,0,0,0c1,0.1,1.7-0.7,1.8-1.6l0.1-1.3
	c-0.8-0.1-1.6-0.2-2.6-0.2c-5.8,0-7.1,3.3-7.1,8.4v1.7h-5v1.6c0.2,0.9,0.9,1.5,1.8,1.5c0,0,0,0,0,0h3.2v18h2.1l0,0
	c0.9,0,1.7-0.7,1.8-1.6V37.9h3.9C156.6,37.9,157.3,37.2,157.4,36.3L157.4,36.3z"/>
<path class="st1" d="M105.6,34.8L105.6,34.8c-0.8,0-1.6,0.6-1.9,1.3l-5.4,16.1h-0.1L93,36.1c-0.3-0.7-1.1-1.3-2-1.3l0,0h-2.7
	l7.2,19.7c0.2,0.7,0.7,1.7,0.7,2.2c0,0.4-1.2,5.2-4.6,5.2c-0.1,0-0.2,0-0.3,0c-0.9-0.1-1.5,0.5-1.7,1.5l-0.1,1.3
	c0.7,0.2,1.4,0.3,2.7,0.3c5.1,0,6.6-4.6,8.1-8.7l7.7-21.5C108,34.8,105.6,34.8,105.6,34.8z"/>
<path class="st1" d="M80.9,39.1c-3.2-1.7-6.7-2.8-6.7-6.1c0-3.5,3.2-4.4,5.7-4.4c0,0,0,0,0,0c1.1,0,1.9,0.1,2.8,0.3l0,0
	c0.9,0,1.6-0.7,1.8-1.5v-1.3c-1.6-0.4-3.3-0.6-4.8-0.6c-5.4,0-9.4,2.7-9.4,7.9c0,4.5,3.1,6.3,6.3,7.9c3.3,1.5,6.8,2.8,6.8,6.6
	c0,3.9-3.8,5.3-6.4,5.3c-1.5,0-3.1-0.4-4.5-0.8c-0.9-0.2-1.6,0.6-1.7,1.6l-0.1,1.2c1.9,0.6,3.8,1.1,5.8,1.1l0,0l0,0
	c6.1,0,10.8-2.4,10.8-8.7C87.3,42.8,84.2,40.7,80.9,39.1L80.9,39.1z"/>
<path class="st1" d="M139.7,55.9L139.7,55.9c0.8,0,1.5-0.6,1.7-1.4V42.4c0-4.6-1.9-8.1-7.3-8.1c-1.9,0-5.1,1.1-6.5,4.1
	c-1.2-2.9-3.6-4.1-6-4.1c-3.1,0-5.2,1.1-6.7,3.6h-0.1v-1.4c0-0.9-0.8-1.7-1.8-1.7l0,0h-1.8v21.1h2.1l0,0c0.9,0,1.7-0.8,1.7-1.8
	c0,0,0,0,0-0.1v-8.8c0-3.9,1.6-7.8,5.6-7.8c3.1,0,3.7,3.3,3.7,5.9v12.6h2.2l0,0c0.9,0,1.6-0.7,1.7-1.6v-9.1c0-3.9,1.6-7.8,5.6-7.8
	c3.1,0,3.7,3.3,3.7,5.9v12.6H139.7L139.7,55.9z"/>
<path class="st1" d="M199.7,55.9L199.7,55.9c1,0,1.7-0.8,1.8-1.7V43.3c0-5.6-2.5-9-7.9-9c-3,0-5.8,1.4-6.9,3.8h-0.1v-1.5
	c0,0,0,0,0,0c0-1-0.8-1.8-1.8-1.8l0,0h-2v21.1h2.2l0,0c0.9,0,1.6-0.8,1.7-1.7v-8.1c0-5.1,2-8.7,6.4-8.7c3.4,0.2,4.5,2.6,4.5,7.6
	v10.9H199.7z"/>
<path class="st1" d="M220.6,34.8C220.6,34.8,220.6,34.8,220.6,34.8c-0.8,0-1.6,0.6-2,1.3l-5.3,16.1h-0.1L208,36.1
	c-0.4-0.7-1.2-1.3-2-1.3l0,0h-2.7l7.1,19.7c0.3,0.7,0.8,1.7,0.8,2.2c0,0.4-1.2,5.2-4.7,5.2c-0.1,0-0.1,0-0.2,0
	c-0.9-0.1-1.6,0.5-1.7,1.5l-0.1,1.3c0.7,0.2,1.4,0.3,2.6,0.3c5.2,0,6.7-4.6,8.1-8.7l7.8-21.5L220.6,34.8L220.6,34.8z"/>
</svg>
