<?xml version="1.0" encoding="utf-8"?>
<!-- Generator: Adobe Illustrator 28.0.0, SVG Export Plug-In . SVG Version: 6.00 Build 0)  -->
<svg version="1.1" id="layer" xmlns="http://www.w3.org/2000/svg" xmlns:xlink="http://www.w3.org/1999/xlink" x="0px" y="0px"
	 viewBox="0 0 600.4 107" style="enable-background:new 0 0 600.4 107;" xml:space="preserve">
<style type="text/css">
	.st0{fill-rule:evenodd;clip-rule:evenodd;fill:#FFFFFF;}
</style>
<path class="st0" d="M186,47.3h-10.8v20.9c0,5.6,3.7,5.5,10.8,5.2v8.5c-14.5,1.7-20.2-2.3-20.2-13.6V47.4h-8v-9.1h8V26.6l9.4-2.8
	v14.5H186V47.3z M227.2,38.2h9.4v43.6h-9.4v-6.3c-3.3,4.6-8.5,7.4-15.3,7.4c-11.9,0-21.7-10-21.7-22.9c0-13,9.9-22.9,21.7-22.9
	c6.8,0,12,2.8,15.3,7.3L227.2,38.2L227.2,38.2z M213.4,74c7.9,0,13.8-5.8,13.8-14c0-8.1-5.9-14-13.8-14c-7.8,0-13.8,5.8-13.8,14
	C199.6,68.2,205.6,74,213.4,74L213.4,74z M252.3,31.7c-3.3,0-6-2.8-6-6c0-3.3,2.7-6,6-6s6,2.7,6,6C258.4,28.9,255.6,31.7,252.3,31.7
	L252.3,31.7z M247.6,81.8V38.2h9.4v43.6H247.6z M267.9,81.8V18.1h9.4v63.7H267.9z M338.5,38.2h9.9l-13.7,43.6h-9.2l-9.1-29.4
	l-9.2,29.4H298l-13.7-43.6h9.9l8.5,30.1l9.2-30.1h9l9.1,30.1L338.5,38.2z M360.2,31.7c-3.3,0-6-2.8-6-6c0-3.3,2.7-6,6-6s6,2.7,6,6
	C366.2,28.9,363.5,31.7,360.2,31.7L360.2,31.7z M355.4,81.8V38.2h9.4v43.6H355.4z M398.7,37.1c9.8,0,16.8,6.6,16.8,18v26.8h-9.4V56
	c0-6.6-3.8-10.1-9.8-10.1c-6.2,0-11.1,3.7-11.1,12.6v23.4h-9.4V38.3h9.4v5.6C388.1,39.3,392.8,37.1,398.7,37.1L398.7,37.1z
	 M460.1,20.8h9.4v61.1h-9.4v-6.3c-3.3,4.6-8.5,7.4-15.3,7.4c-11.9,0-21.7-10-21.7-22.9c0-13,9.9-22.9,21.7-22.9
	c6.8,0,12,2.8,15.3,7.3V20.8z M446.4,74c7.9,0,13.8-5.8,13.8-14c0-8.1-5.9-14-13.8-14c-7.8,0-13.8,5.8-13.8,14S438.5,74,446.4,74
	L446.4,74z M501.1,83c-13.2,0-23-10-23-22.9c0-13,9.9-22.9,23-22.9c8.6,0,16,4.4,19.5,11.3l-8.1,4.7c-1.9-4.1-6.2-6.7-11.4-6.7
	c-7.7,0-13.5,5.8-13.5,13.7c0,7.9,5.8,13.7,13.5,13.7c5.2,0,9.5-2.7,11.6-6.7l8.1,4.6C517.1,78.5,509.7,83,501.1,83L501.1,83z
	 M536.3,50.3c0,7.9,23.5,3.1,23.5,19.3c0,8.7-7.6,13.4-17,13.4c-8.7,0-15-3.9-17.8-10.2l8.1-4.7c1.4,3.9,4.9,6.3,9.7,6.3
	c4.2,0,7.4-1.4,7.4-4.9c0-7.8-23.5-3.4-23.5-19c0-8.2,7.1-13.3,16-13.3c7.2,0,13.1,3.3,16.1,9.1l-7.9,4.4c-1.6-3.4-4.6-5-8.2-5
	C539.3,45.6,536.3,47.1,536.3,50.3L536.3,50.3z M576.5,50.3c0,7.9,23.5,3.1,23.5,19.3c0,8.7-7.6,13.4-17,13.4
	c-8.7,0-15-3.9-17.8-10.2l8.1-4.7c1.4,3.9,4.9,6.3,9.7,6.3c4.2,0,7.4-1.4,7.4-4.9c0-7.8-23.5-3.4-23.5-19c0-8.2,7.1-13.3,16-13.3
	c7.2,0,13.1,3.3,16.1,9.1l-7.9,4.4c-1.6-3.4-4.6-5-8.2-5C579.5,45.6,576.5,47.1,576.5,50.3L576.5,50.3z"/>
<path class="st0" d="M62,16c-16.5,0-26.9,8.3-31,24.8c6.2-8.3,13.4-11.4,21.7-9.3c4.7,1.2,8.1,4.6,11.8,8.4
	c6.1,6.2,13.1,13.3,28.5,13.3c16.5,0,26.9-8.3,31-24.8c-6.2,8.3-13.4,11.4-21.7,9.3c-4.7-1.2-8.1-4.6-11.8-8.4
	C84.4,23.1,77.4,16,62,16L62,16z M31,53.1c-16.5,0-26.9,8.3-31,24.8c6.2-8.3,13.4-11.4,21.7-9.3c4.7,1.2,8.1,4.6,11.8,8.4
	c6.1,6.2,13.1,13.3,28.5,13.3c16.5,0,26.9-8.3,31-24.8c-6.2,8.3-13.4,11.4-21.7,9.3c-4.7-1.2-8.1-4.6-11.8-8.4
	C53.4,60.3,46.4,53.1,31,53.1L31,53.1z"/>
</svg>
