<?xml version="1.0" encoding="utf-8"?>
<!-- Generator: Adobe Illustrator 28.0.0, SVG Export Plug-In . SVG Version: 6.00 Build 0)  -->
<svg version="1.1" id="Calque_1" xmlns="http://www.w3.org/2000/svg" xmlns:xlink="http://www.w3.org/1999/xlink" x="0px" y="0px"
	 viewBox="0 0 104.2 61.4" style="enable-background:new 0 0 104.2 61.4;" xml:space="preserve">
<style type="text/css">
	.st0{fill-rule:evenodd;clip-rule:evenodd;fill:#FFFFFF;}
	.st1{fill-rule:evenodd;clip-rule:evenodd;fill:#FFFFFF;fill-opacity:0.7;}
</style>
<path class="st0" d="M34.1,12.2h8.5L21.1,49.1L-0.4,12.2h8.7l12.8,22.2L34.1,12.2z"/>
<path class="st1" d="M26.1,12.1h8l-13,22.3L8.2,12.1h8l4.9,8.6L26.1,12.1z"/>
<path class="st0" d="M47.6,19.4c0-0.3,0.2-0.5,0.5-0.6c0.3-0.2,0.6-0.3,0.9-0.3c0.5,0,0.8,0.2,0.9,0.5l4.8,16.2L59.5,19
	c0.1-0.3,0.4-0.5,0.8-0.5c0.4,0,0.7,0.1,1,0.3c0.3,0.2,0.5,0.4,0.5,0.7l0,0c0,0.1,0,0.1,0,0.1l-5.6,18.2c-0.2,0.5-0.7,0.7-1.5,0.7
	c-0.7,0-1.2-0.2-1.4-0.7l-5.6-18.2C47.6,19.6,47.6,19.5,47.6,19.4z M62,33.4v-7.1c0-0.2,0.1-0.4,0.3-0.6c0.3-0.1,0.5-0.2,0.8-0.2
	c0.3,0,0.6,0.1,0.8,0.2c0.3,0.2,0.4,0.4,0.4,0.6v7.1c0,0.8,0.3,1.5,0.9,2.2c0.6,0.7,1.3,1,2.2,1c0.9,0,1.6-0.3,2.2-1
	c0.7-0.7,1-1.4,1-2.2v-7.1c0-0.2,0.1-0.4,0.3-0.6c0.3-0.1,0.5-0.2,0.8-0.2c0.3,0,0.6,0.1,0.8,0.2c0.3,0.1,0.4,0.3,0.4,0.6v7.1
	c0,1.4-0.6,2.6-1.7,3.6c-1.1,1.1-2.3,1.6-3.8,1.6c-1.5,0-2.7-0.5-3.8-1.6C62.5,36,62,34.8,62,33.4z M74.7,33.3v-2.8
	c0-1.4,0.5-2.6,1.6-3.7c1.1-1,2.4-1.5,3.9-1.5c1.4,0,2.6,0.5,3.7,1.4c1.1,1,1.6,2.2,1.6,3.6c0,0.5-0.1,1-0.2,1.3
	c-0.1,0.3-0.3,0.6-0.6,0.7c-0.3,0.1-0.5,0.2-0.8,0.2c-0.2,0.1-0.5,0.1-0.9,0.1h-6v0.8c0,1,0.4,1.8,1.1,2.4c0.7,0.6,1.7,0.9,2.8,0.9
	c0.6,0,1.1-0.1,1.6-0.3s0.8-0.4,1.1-0.5c0.3-0.2,0.5-0.3,0.6-0.3c0.3,0,0.5,0.1,0.7,0.4c0.2,0.2,0.3,0.4,0.3,0.7
	c0,0.4-0.4,0.8-1.3,1.2c-0.8,0.5-1.8,0.7-3.1,0.7c-1.8,0-3.3-0.5-4.4-1.5C75.3,36.2,74.7,34.9,74.7,33.3z M77,31.1h5.1
	c0.5,0,0.8-0.1,0.9-0.2c0.2-0.1,0.3-0.4,0.3-0.7c0-0.8-0.3-1.5-0.9-2.2c-0.6-0.6-1.3-0.9-2.2-0.9c-0.9,0-1.6,0.3-2.3,0.9
	c-0.6,0.5-0.9,1.2-0.9,2.1V31.1z M86.6,37.1c0-0.4,0.1-0.7,0.4-1c0.3-0.3,0.6-0.4,1-0.4c0.4,0,0.7,0.1,1,0.4c0.3,0.3,0.4,0.6,0.4,1
	c0,0.4-0.1,0.7-0.4,1c-0.3,0.3-0.6,0.5-1,0.5c-0.4,0-0.7-0.2-1-0.5C86.7,37.9,86.6,37.5,86.6,37.1z M88.6,43.7
	c0-0.3,0.1-0.6,0.3-0.8c0.2-0.2,0.4-0.3,0.7-0.3c0.7,0,1.1-0.2,1.4-0.7c0.2-0.5,0.3-1.3,0.3-2.4V26.3c0-0.3,0.1-0.5,0.3-0.6
	c0.2-0.1,0.5-0.2,0.8-0.2c0.3,0,0.6,0.1,0.9,0.2c0.2,0.1,0.3,0.3,0.3,0.6v13.2c0,1.6-0.3,2.8-0.9,3.7c-0.7,0.9-1.6,1.4-2.9,1.4
	C89,44.6,88.6,44.3,88.6,43.7L88.6,43.7z M91,20.6c0-0.3,0.1-0.6,0.4-0.8c0.3-0.3,0.6-0.4,1-0.4s0.7,0.1,1,0.4
	c0.3,0.2,0.4,0.5,0.4,0.8c0,0.4-0.1,0.7-0.4,1s-0.6,0.4-1,0.4c-0.3,0-0.7-0.1-1-0.4C91.1,21.4,91,21,91,20.6z M95.3,36.5
	c0-0.2,0.1-0.4,0.2-0.6c0.2-0.3,0.4-0.4,0.6-0.4c0.1,0,0.3,0.1,0.6,0.3c0.3,0.3,0.7,0.5,1.2,0.7c0.5,0.2,1.1,0.3,1.8,0.3
	c0.9,0,1.6-0.2,2-0.5c0.4-0.3,0.6-0.7,0.6-1.2c0-0.6-0.2-1.1-0.7-1.5c-0.5-0.3-1-0.6-1.6-0.8c-0.7-0.1-1.3-0.3-2-0.6
	c-0.7-0.2-1.2-0.5-1.7-1c-0.5-0.5-0.7-1.2-0.7-2.1c0-1,0.4-1.9,1.1-2.6c0.7-0.8,1.9-1.2,3.4-1.2c1,0,1.9,0.2,2.7,0.5
	c0.8,0.3,1.2,0.6,1.2,1c0,0.2-0.1,0.4-0.3,0.7c-0.1,0.3-0.3,0.4-0.6,0.4c-0.1,0-0.4-0.1-1.1-0.3c-0.6-0.3-1.2-0.4-1.8-0.4
	c-0.9,0-1.5,0.2-1.9,0.5c-0.4,0.4-0.6,0.9-0.6,1.4c0,0.5,0.2,0.9,0.6,1.2c0.5,0.3,1,0.5,1.7,0.6c0.7,0.2,1.3,0.4,2,0.6
	c0.7,0.3,1.2,0.7,1.7,1.3c0.5,0.5,0.7,1.3,0.7,2.2c0,1.1-0.4,2-1.2,2.6c-0.8,0.7-1.9,1-3.4,1c-1.3,0-2.3-0.2-3.2-0.6
	C95.7,37.6,95.3,37.1,95.3,36.5L95.3,36.5z"/>
</svg>
