<?xml version="1.0" encoding="utf-8"?>
<!-- Generator: Adobe Illustrator 28.0.0, SVG Export Plug-In . SVG Version: 6.00 Build 0)  -->
<svg version="1.1" id="Calque_1" xmlns="http://www.w3.org/2000/svg" xmlns:xlink="http://www.w3.org/1999/xlink" x="0px" y="0px"
	 viewBox="0 0 24 15.8" style="enable-background:new 0 0 24 15.8;" xml:space="preserve">
<style type="text/css">
	.st0{fill:#FFFFFF;}
</style>
<path class="st0" d="M18.9,10.1c-0.2,0.1-0.4,0.1-0.6,0.1c-0.3,0-0.6-0.1-0.9-0.2c-0.3-0.1-0.5-0.3-0.7-0.5
	c-0.2-0.2-0.3-0.5-0.4-0.7s-0.1-0.6-0.1-0.9c0-0.3,0-0.6,0.1-0.9c0.1-0.3,0.2-0.5,0.4-0.7c0.2-0.2,0.4-0.4,0.7-0.5
	c0.3-0.1,0.6-0.2,0.9-0.2c0.2,0,0.5,0,0.7,0.1c0.2,0.1,0.4,0.2,0.6,0.3s0.3,0.3,0.4,0.5c0.1,0.2,0.2,0.4,0.2,0.7h-0.9
	c-0.1-0.2-0.2-0.4-0.3-0.6c-0.2-0.1-0.4-0.2-0.6-0.2c-0.2,0-0.4,0-0.6,0.1s-0.3,0.2-0.4,0.3c-0.1,0.1-0.2,0.3-0.2,0.5
	s-0.1,0.4-0.1,0.6c0,0.2,0,0.4,0.1,0.5c0,0.2,0.1,0.3,0.2,0.5s0.2,0.3,0.4,0.3s0.3,0.1,0.6,0.1c0.3,0,0.6-0.1,0.8-0.2
	c0.2-0.2,0.3-0.4,0.3-0.7h-1V7.7h1.9v2.4h-0.6l-0.1-0.5C19.4,9.8,19.2,10,18.9,10.1z M21.8,5.6v3.6H24v0.8h-3.2V5.6H21.8z M2.8,7.9
	c0-0.7,0.3-1.4,0.9-2l1.1,4.2h0.8l1.1-3.8l1.1,3.8h0.8l1.3-4.9H9L8.1,9l-1-3.7H6.3L5.2,9L4.4,5.4c1.5-1,3.9-1.7,6.5-1.7
	c2.5,0,4.8,0.5,6.3,1.4c-1.6-1.5-4.6-2.6-7.9-2.6C4.2,2.5,0,4.9,0,7.9s4.2,5.4,9.3,5.4c3.3,0,6.3-1.1,7.9-2.6
	c-1.5,0.9-3.7,1.4-6.2,1.4C6.4,12.1,2.8,10.2,2.8,7.9z M12,7.3C11.9,7.2,11.7,7,11.5,7c-0.2-0.1-0.4-0.1-0.6-0.1
	c-0.3,0-0.5,0-0.7,0.1C10,7,9.9,7.2,9.7,7.3C9.5,7.7,9.4,8.1,9.4,8.6c0,0.2,0,0.4,0.1,0.6c0.1,0.2,0.2,0.4,0.3,0.5
	c0.3,0.3,0.6,0.5,1.1,0.5c0.2,0,0.4,0,0.6-0.1c0.1,0,0.2-0.1,0.3-0.1c0.2-0.1,0.3-0.3,0.4-0.5c0.1-0.2,0.1-0.3,0.1-0.4l0-0.1h-0.6
	l0,0c0,0.2-0.3,0.6-0.8,0.6c-0.7,0-0.9-0.5-0.9-0.9h2.3V8.7c0-0.3,0-0.5-0.1-0.8C12.2,7.7,12.1,7.5,12,7.3z M10.8,7.4
	c0.5,0,0.8,0.3,0.8,0.8H10C10,7.8,10.4,7.4,10.8,7.4z M15.5,7.8c-0.1-0.2-0.1-0.4-0.3-0.5C15.1,7.1,15,7,14.8,6.9
	c-0.2-0.1-0.4-0.1-0.6-0.1c-0.2,0-0.4,0-0.5,0.1c-0.1,0.1-0.3,0.2-0.3,0.3V5.7h-0.6v4.4h0.6V9.8c0.1,0.1,0.1,0.1,0.2,0.2
	c0.2,0.1,0.4,0.2,0.6,0.2c0.3,0,0.5-0.1,0.7-0.2c0.2-0.1,0.3-0.3,0.4-0.4c0.1-0.2,0.2-0.4,0.2-0.6c0-0.2,0.1-0.4,0.1-0.6
	C15.6,8.2,15.6,8,15.5,7.8z M15,8.5c0,0.3-0.1,0.6-0.2,0.8c-0.1,0.2-0.4,0.3-0.6,0.3c-0.4,0-0.8-0.3-0.8-1c0-0.4,0-0.6,0.1-0.8
	c0.1-0.3,0.4-0.4,0.7-0.4c0.3,0,0.6,0.1,0.7,0.4C14.9,8,15,8.3,15,8.5z"/>
</svg>
